<svg xmlns="http://www.w3.org/2000/svg" xmlns:xlink="http://www.w3.org/1999/xlink" id="body_1" preserveAspectRatio="xMinYMin meet" viewBox="0 0 2288 1123"><defs><clipPath id="1"><path id="" clip-rule="evenodd" transform="matrix(1 0 0 1 0 0)" d="M0 842L0 0L0 0L1716.124 0L1716.124 0L1716.124 842L1716.124 842L0 842z" /></clipPath><clipPath id="2"><path id="" clip-rule="evenodd" transform="matrix(1 0 0 1 0 0)" d="M90 0L1716.124 0L1716.124 0L1716.124 842L1716.124 842L90 842z" /></clipPath><clipPath id="3"><path id="" clip-rule="evenodd" transform="matrix(1 0 0 1 0 0)" d="M96 78L1626.124 78L1626.124 78L1626.124 621.21L1626.124 621.21L96 621.21z" /></clipPath><clipPath id="4"><path id="" clip-rule="evenodd" transform="matrix(1 0 0 1 0 0)" d="M96 78L1626.124 78L1626.124 78L1626.124 96L1626.124 96L96 96z" /></clipPath><clipPath id="5"><path id="" clip-rule="evenodd" transform="matrix(1 0 0 1 0 0)" d="M112.5 79.5L97.5 79.5L97.5 79.5L98.25 80.25L98.25 80.25L111.75 80.25" /></clipPath><clipPath id="6"><path id="" clip-rule="evenodd" transform="matrix(1 0 0 1 0 0)" d="M112.5 94.5L112.5 79.5L112.5 79.5L111.75 80.25L111.75 80.25L111.75 93.75" /></clipPath><clipPath id="7"><path id="" clip-rule="evenodd" transform="matrix(1 0 0 1 0 0)" d="M112.5 94.5L97.5 94.5L97.5 94.5L98.25 93.75L98.25 93.75L111.75 93.75" /></clipPath><clipPath id="8"><path id="" clip-rule="evenodd" transform="matrix(1 0 0 1 0 0)" d="M97.5 94.5L97.5 79.5L97.5 79.5L98.25 80.25L98.25 80.25L98.25 93.75" /></clipPath><clipPath id="9"><path id="" clip-rule="evenodd" transform="matrix(1 0 0 1 0 0)" d="M98.25 80.25L111.75 80.25L111.75 80.25L111.75 93.75L111.75 93.75L98.25 93.75z" /></clipPath><clipPath id="10"><path id="" clip-rule="evenodd" transform="matrix(1 0 0 1 0 0)" d="M104.25 273.75L176.83594 273.75L176.83594 273.75L176.83594 289.5L176.83594 289.5L104.25 289.5z" /></clipPath><clipPath id="11"><path id="" clip-rule="evenodd" transform="matrix(1 0 0 1 0 0)" d="M176.8359 273.75L104.25 273.75L104.25 273.75L105.75 275.25L105.75 275.25L175.3359 275.25" /></clipPath><clipPath id="12"><path id="" clip-rule="evenodd" transform="matrix(1 0 0 1 0 0)" d="M176.8359 289.5L176.8359 273.75L176.8359 273.75L175.3359 275.25L175.3359 275.25L175.3359 288" /></clipPath><clipPath id="13"><path id="" clip-rule="evenodd" transform="matrix(1 0 0 1 0 0)" d="M176.8359 289.5L104.25 289.5L104.25 289.5L105.75 288L105.75 288L175.3359 288" /></clipPath><clipPath id="14"><path id="" clip-rule="evenodd" transform="matrix(1 0 0 1 0 0)" d="M104.25 289.5L104.25 273.75L104.25 273.75L105.75 275.25L105.75 275.25L105.75 288" /></clipPath><clipPath id="15"><path id="" clip-rule="evenodd" transform="matrix(1 0 0 1 0 0)" d="M100.5 561.67505L130.5 561.67505L130.5 561.67505L130.5 562.42505L130.5 562.42505L100.5 562.42505z" /></clipPath><clipPath id="16"><path id="" clip-rule="evenodd" transform="matrix(1 0 0 1 0 0)" d="M102.25 291L178.83594 291L178.83594 291L178.83594 272.25L178.83594 272.25L102.25 272.25z" /></clipPath><clipPath id="17"><path id="" clip-rule="evenodd" transform="matrix(1 0 0 1 0 0)" d="M104.25 261L587.3281 261L587.3281 261L587.3281 166.5L587.3281 166.5L104.25 166.5z" /></clipPath><clipPath id="18"><path id="" clip-rule="evenodd" transform="matrix(1 0 0 1 0 0)" d="M105.25 260L586.3281 260L586.3281 260L586.3281 167.5L586.3281 167.5L105.25 167.5z" /></clipPath></defs><g transform="matrix(1.3333333 0 0 1.3333334 0 0)"><g clip-path="url(#1)"><g clip-path="url(#2)"><g clip-path="url(#3)"><path id="1" transform="matrix(1 0 0 -1 0 842)" d="M96 764L1626.124 764L1626.124 764L1626.124 220.78998L1626.124 220.78998L96 220.78998z" stroke="none" fill="#F6F6EF" fill-rule="evenodd" /></g><g clip-path="url(#4)"><path id="2" transform="matrix(1 0 0 -1 0 842)" d="M96 764L1626.124 764L1626.124 764L1626.124 746L1626.124 746L96 746z" stroke="none" fill="#FF6600" fill-rule="evenodd" /></g><g clip-path="url(#5)"><path id="3" transform="matrix(1 0 0 -1 0 842)" d="M97.5 762.125L112.5 762.125" stroke="#FFFFFF" stroke-width="0.75" fill="none" /></g><g clip-path="url(#6)"><path id="4" transform="matrix(1 0 0 -1 0 842)" d="M112.125 762.5L112.125 747.5" stroke="#FFFFFF" stroke-width="0.75" fill="none" /></g><g clip-path="url(#7)"><path id="5" transform="matrix(1 0 0 -1 0 842)" d="M97.5 747.875L112.5 747.875" stroke="#FFFFFF" stroke-width="0.75" fill="none" /></g><g clip-path="url(#8)"><path id="6" transform="matrix(1 0 0 -1 0 842)" d="M97.875 762.5L97.875 747.5" stroke="#FFFFFF" stroke-width="0.75" fill="none" /></g><g clip-path="url(#9)"></g><path id="17" transform="matrix(1 0 0 -1 0 842)" d="M115.5 748.6888L183.5977 748.6888" stroke="#0000FF" stroke-width="0.6666667" fill="none" /><path id="21" transform="matrix(1 0 0 -1 0 842)" d="M186.5977 748.6888L206.5898 748.6888" stroke="#0000FF" stroke-width="0.6666667" fill="none" /><path id="30" transform="matrix(1 0 0 -1 0 842)" d="M214.9922 748.6888L249.6445 748.6888" stroke="#0000FF" stroke-width="0.6666667" fill="none" /><path id="36" transform="matrix(1 0 0 -1 0 842)" d="M258.0469 748.6888L277.377 748.6888" stroke="#0000FF" stroke-width="0.6666667" fill="none" /><path id="46" transform="matrix(1 0 0 -1 0 842)" d="M285.7793 748.6888L335.1035 748.6888" stroke="#0000FF" stroke-width="0.6666667" fill="none" /><path id="51" transform="matrix(1 0 0 -1 0 842)" d="M343.5059 748.6888L359.502 748.6888" stroke="#0000FF" stroke-width="0.6666667" fill="none" /><path id="57" transform="matrix(1 0 0 -1 0 842)" d="M367.9043 748.6888L393.2402 748.6888" stroke="#0000FF" stroke-width="0.6666667" fill="none" /><path id="63" transform="matrix(1 0 0 -1 0 842)" d="M401.6426 748.6888L421.6465 748.6888" stroke="#0000FF" stroke-width="0.6666667" fill="none" /><path id="71" transform="matrix(1 0 0 -1 0 842)" d="M430.0488 748.6888L462.7207 748.6888" stroke="#0000FF" stroke-width="0.6666667" fill="none" /><path id="80" transform="matrix(1 0 0 -1 0 842)" d="M1516.905 748.6888L1559.562 748.6888" stroke="#0000FF" stroke-width="0.6666667" fill="none" /><path id="92" transform="matrix(1 0 0 -1 0 842)" d="M1590.956 748.6888L1621.624 748.6888" stroke="#0000FF" stroke-width="0.6666667" fill="none" /><path id="147" transform="matrix(1 0 0 -1 0 842)" d="M104.25 723.1888L417.5039 723.1888" stroke="#0000FF" stroke-width="0.6666667" fill="none" /><path id="170" transform="matrix(1 0 0 -1 0 842)" d="M172.5879 706.6888L223.2188 706.6888" stroke="#0000FF" stroke-width="0.6666667" fill="none" /><path id="178" transform="matrix(1 0 0 -1 0 842)" d="M226.2188 706.6888L272.8711 706.6888" stroke="#0000FF" stroke-width="0.6666667" fill="none" /><path id="184" transform="matrix(1 0 0 -1 0 842)" d="M281.2734 706.6888L301.9336 706.6888" stroke="#0000FF" stroke-width="0.6666667" fill="none" /><path id="190" transform="matrix(1 0 0 -1 0 842)" d="M310.3359 706.6888L329.666 706.6888" stroke="#0000FF" stroke-width="0.6666667" fill="none" /><path id="200" transform="matrix(1 0 0 -1 0 842)" d="M338.0684 706.6888L375.3809 706.6888" stroke="#0000FF" stroke-width="0.6666667" fill="none" /><path id="212" transform="matrix(1 0 0 -1 0 842)" d="M383.7832 706.6888L448.1074 706.6888" stroke="#0000FF" stroke-width="0.6666667" fill="none" /><g clip-path="url(#10)"><path id="414" transform="matrix(1 0 0 -1 0 842)" d="M104.25 568.25L176.83594 568.25L176.83594 568.25L176.83594 552.5L176.83594 552.5L104.25 552.5z" stroke="none" fill="#F0F0F0" fill-rule="evenodd" /></g><g clip-path="url(#11)"><path id="415" transform="matrix(1 0 0 -1 0 842)" d="M104.25 567.5L176.8359 567.5" stroke="#A9A9A9" stroke-width="1.5" fill="none" /></g><g clip-path="url(#12)"><path id="416" transform="matrix(1 0 0 -1 0 842)" d="M176.0859 568.25L176.0859 552.5" stroke="#A9A9A9" stroke-width="1.5" fill="none" /></g><g clip-path="url(#13)"><path id="417" transform="matrix(1 0 0 -1 0 842)" d="M104.25 553.25L176.8359 553.25" stroke="#A9A9A9" stroke-width="1.5" fill="none" /></g><g clip-path="url(#14)"><path id="418" transform="matrix(1 0 0 -1 0 842)" d="M105 568.25L105 552.5" stroke="#A9A9A9" stroke-width="1.5" fill="none" /></g><path id="435" transform="matrix(1 0 0 -1 0 842)" d="M106.5 490.7488L137.1387 490.7488" stroke="#0000FF" stroke-width="0.6666667" fill="none" /><path id="446" transform="matrix(1 0 0 -1 0 842)" d="M140.1387 490.7488L202.1309 490.7488" stroke="#0000FF" stroke-width="0.6666667" fill="none" /><path id="452" transform="matrix(1 0 0 -1 0 842)" d="M210.5332 490.7488L231.1934 490.7488" stroke="#0000FF" stroke-width="0.6666667" fill="none" /><path id="456" transform="matrix(1 0 0 -1 0 842)" d="M234.1934 490.7488L248.1855 490.7488" stroke="#0000FF" stroke-width="0.6666667" fill="none" /><path id="1376" transform="matrix(1 0 0 -1 0 842)" d="M106.5 355.7499L120.3691 355.7499" stroke="#0000FF" stroke-width="0.375" fill="none" /><g clip-path="url(#15)"></g><path id="1384" transform="matrix(1 0 0 -1 0 842)" d="M136.5 320.04883L174.4746 320.04883" stroke="#0000FF" stroke-width="0.6666667" fill="none" /><path id="1395" transform="matrix(1 0 0 -1 0 842)" d="M177.4746 320.04883L239.4668 320.04883" stroke="#0000FF" stroke-width="0.6666667" fill="none" /><path id="1403" transform="matrix(1 0 0 -1 0 842)" d="M247.8691 320.04883L277.8516 320.04883" stroke="#0000FF" stroke-width="0.6666667" fill="none" /><path id="1409" transform="matrix(1 0 0 -1 0 842)" d="M286.2539 320.04883L306.9141 320.04883" stroke="#0000FF" stroke-width="0.6666667" fill="none" /><path id="1413" transform="matrix(1 0 0 -1 0 842)" d="M309.9141 320.04883L323.9062 320.04883" stroke="#0000FF" stroke-width="0.6666667" fill="none" /><path id="1841" transform="matrix(1 0 0 -1 0 842)" d="M136.5 238.92987L150.3691 238.92987" stroke="#0000FF" stroke-width="0.375" fill="none" /></g><g clip-path="url(#16)"><path id="1842" transform="matrix(1 0 0 -1 0 842)" d="M102.25 551L178.83594 551L178.83594 551L178.83594 569.75L178.83594 569.75L102.25 569.75z" stroke="#000000" stroke-width="1" fill="none" /></g><g clip-path="url(#17)"><path id="1843" transform="matrix(1 0 0 -1 0 842)" d="M104.75 581.5L586.8281 581.5L586.8281 581.5L586.8281 675L586.8281 675L104.75 675z" stroke="#000000" stroke-width="1" fill="none" /><g clip-path="url(#18)"></g></g></g></g></svg>